<svg width="24" height="24" viewBox="0 0 24 24" fill="none" xmlns="http://www.w3.org/2000/svg">
<path d="M17.451 2.344C17.6249 2.14402 17.8711 2.02126 18.1355 2.0027C18.3999 1.98413 18.6608 2.07128 18.861 2.245C20.1542 3.36768 21.1933 4.75313 21.909 6.309C22.0199 6.55008 22.0304 6.82533 21.9383 7.07419C21.8462 7.32305 21.6591 7.52514 21.418 7.636C21.1769 7.74686 20.9017 7.75741 20.6528 7.66533C20.4039 7.57325 20.2019 7.38608 20.091 7.145C19.4948 5.84737 18.6289 4.69171 17.551 3.755C17.3509 3.58121 17.2279 3.33508 17.2092 3.0707C17.1904 2.80631 17.2774 2.54429 17.451 2.344ZM5.13599 2.245C5.33623 2.07102 5.59738 1.98371 5.862 2.00227C6.12661 2.02084 6.37301 2.14376 6.54699 2.344C6.72097 2.54424 6.80829 2.80539 6.78972 3.07C6.77115 3.33462 6.64823 3.58102 6.44799 3.755C5.37009 4.69171 4.50419 5.84737 3.90799 7.145C3.8547 7.26667 3.7777 7.37651 3.68149 7.46809C3.58528 7.55968 3.47179 7.63118 3.34764 7.67842C3.2235 7.72566 3.09118 7.74769 2.95843 7.74323C2.82567 7.73877 2.69513 7.7079 2.57444 7.65244C2.45374 7.59697 2.3453 7.51802 2.25546 7.42018C2.16561 7.32234 2.09616 7.20759 2.05115 7.08262C2.00615 6.95764 1.98649 6.82495 1.99333 6.6923C2.00017 6.55964 2.03337 6.42968 2.09099 6.31C2.80566 4.75405 3.84371 3.36827 5.13599 2.245ZM14.235 19C15.1 19 15.557 20.024 14.98 20.668C14.6048 21.0871 14.1455 21.4223 13.632 21.6518C13.1186 21.8813 12.5624 22 12 22C11.4375 22 10.8814 21.8813 10.3679 21.6518C9.85445 21.4223 9.39514 21.0871 9.01999 20.668C8.46799 20.052 8.86199 19.089 9.65399 19.007L9.76399 19.001L14.235 19ZM12 2C13.358 2 14.506 2.903 14.875 4.141L14.921 4.312L14.929 4.355C16.0315 4.97671 16.9711 5.85086 17.6705 6.9058C18.37 7.96073 18.8095 9.16641 18.953 10.424L18.981 10.711L19 11V13.931L19.021 14.067C19.1579 14.8038 19.5657 15.4627 20.164 15.914L20.331 16.031L20.493 16.13C21.353 16.617 21.053 17.896 20.116 17.994L20 18H3.99999C2.97199 18 2.61299 16.636 3.50699 16.13C3.88802 15.9144 4.21724 15.618 4.47153 15.2616C4.72582 14.9052 4.89903 14.4974 4.97899 14.067L4.99999 13.924L5.00099 10.954C5.06196 9.64788 5.44215 8.37661 6.10828 7.25147C6.7744 6.12632 7.70616 5.1816 8.82199 4.5L9.06999 4.354L9.07999 4.311C9.22105 3.71283 9.54242 3.17241 10.0006 2.76284C10.4589 2.35328 11.0318 2.09432 11.642 2.021L11.824 2.004L12 2Z" fill="#526FFE"/>
</svg>
