<svg width="20" height="21" viewBox="0 0 20 21" fill="none" xmlns="http://www.w3.org/2000/svg">
<path fill-rule="evenodd" clip-rule="evenodd" d="M5.83333 10.4999C5.61232 10.4999 5.40036 10.5877 5.24408 10.744C5.0878 10.9003 5 11.1122 5 11.3333V16.3333C5 16.5543 5.0878 16.7662 5.24408 16.9225C5.40036 17.0788 5.61232 17.1666 5.83333 17.1666H14.1667C14.3877 17.1666 14.5996 17.0788 14.7559 16.9225C14.9122 16.7662 15 16.5543 15 16.3333V11.3333C15 11.1122 14.9122 10.9003 14.7559 10.744C14.5996 10.5877 14.3877 10.4999 14.1667 10.4999H5.83333ZM4.06557 9.56549C4.53441 9.09664 5.17029 8.83325 5.83333 8.83325H14.1667C14.8297 8.83325 15.4656 9.09664 15.9344 9.56549C16.4033 10.0343 16.6667 10.6702 16.6667 11.3333V16.3333C16.6667 16.9963 16.4033 17.6322 15.9344 18.101C15.4656 18.5699 14.8297 18.8333 14.1667 18.8333H5.83333C5.17029 18.8333 4.53441 18.5699 4.06557 18.101C3.59673 17.6322 3.33333 16.9963 3.33333 16.3333V11.3333C3.33333 10.6702 3.59673 10.0343 4.06557 9.56549Z" fill="white"/>
<path fill-rule="evenodd" clip-rule="evenodd" d="M10 3.83329C9.33696 3.83329 8.70107 4.09668 8.23223 4.56553C7.76339 5.03437 7.5 5.67025 7.5 6.33329V9.66663C7.5 10.1269 7.1269 10.5 6.66667 10.5C6.20643 10.5 5.83333 10.1269 5.83333 9.66663V6.33329C5.83333 5.22822 6.27232 4.16842 7.05372 3.38701C7.83512 2.60561 8.89493 2.16663 10 2.16663C11.1051 2.16663 12.1649 2.60561 12.9463 3.38701C13.7277 4.16842 14.1667 5.22822 14.1667 6.33329V9.66663C14.1667 10.1269 13.7936 10.5 13.3333 10.5C12.8731 10.5 12.5 10.1269 12.5 9.66663V6.33329C12.5 5.67025 12.2366 5.03437 11.7678 4.56553C11.2989 4.09668 10.663 3.83329 10 3.83329ZM8.82149 12.6548C9.13405 12.3422 9.55797 12.1666 10 12.1666C10.442 12.1666 10.866 12.3422 11.1785 12.6548C11.4911 12.9673 11.6667 13.3913 11.6667 13.8333C11.6667 14.2753 11.4911 14.6992 11.1785 15.0118C10.866 15.3244 10.442 15.5 10 15.5C9.55797 15.5 9.13405 15.3244 8.82149 15.0118C8.50893 14.6992 8.33333 14.2753 8.33333 13.8333C8.33333 13.3913 8.50893 12.9673 8.82149 12.6548Z" fill="white"/>
</svg>
